<svg xmlns="http://www.w3.org/2000/svg" class="svg-icon" style="width:1em;height:1em;vertical-align:middle;fill:currentColor;overflow:hidden" viewBox="0 0 1024 1024"><path fill="#23130D" d="M970.46 871.28h-30.94V371.26c0-41.9-34.1-76-76-76h-77.44v-36.02h108.6c5.52 0 10-4.48 10-10V128.92c0-.1-.02-.2-.04-.3-.14-36.86-29.22-67.02-65.66-68.88a9.78 9.78 0 0 0-3.6-.7h-548.8c-38.2 0-69.28 31.08-69.28 69.28v166.94h-52.82c-11.8 0-22.96 2.7-32.92 7.52-9.96 4.8-18.72 11.74-25.7 20.18-.66.8-1.3 1.62-1.94 2.44-.1.14-.22.28-.32.42a75.574 75.574 0 0 0-15.14 45.46v500H57.54c-5.52 0-10 4.46-10 10v40.94c0 3.82 2.18 7.32 5.64 8.98l67.54 32.76c1.36.66 2.86 1 4.36 1h777.84c1.5 0 3-.34 4.36-1l67.54-32.76a9.954 9.954 0 0 0 5.64-8.98v-40.94c0-5.54-4.48-10-10-10zM835.38 79.64c27.16 0 49.28 22.1 49.28 49.28 0 .08.02.16.02.24v110.08h-98.6V129.02c0-.04.02-.06.02-.1 0-27.18 22.1-49.28 49.28-49.28zM237.3 128.32c0-27.16 22.1-49.28 49.28-49.28h500.8c-13.08 12.58-21.24 30.22-21.28 49.76 0 .04-.02.08-.02.12v643.86l-528.78-.02V128.32zm-10 664.44 548.78.02c2.66 0 5.2-1.06 7.08-2.92a9.987 9.987 0 0 0 2.92-7.08V367.26h88.42v463.08h-721V367.26h63.8v415.5c0 5.54 4.48 10 10 10zM108.46 371.3c0-.02.02-.02.02-.04 0-14.46 5.52-27.68 14.56-37.62.06-.06.12-.12.16-.18.56-.6 1.12-1.2 1.7-1.78 10.14-10.14 24.14-16.42 39.58-16.42h52.82v32h-73.8c-5.52 0-10 4.48-10 10v483.08c0 5.52 4.48 10 10 10h741c5.52 0 10-4.48 10-10V357.26c0-5.52-4.48-10-10-10h-98.42v-32h77.44c30.88 0 56 25.12 56 56v500.02H108.46V371.3zm852 544.64-59.84 29.02H127.38l-59.84-29.02v-24.66h892.92v24.66z"/><path fill="#636368" d="M67.54 891.28v24.66l59.84 29.02h773.24l59.84-29.02v-24.66H67.54zm557 36.84H403.46c-5.52 0-10-4.48-10-10s4.48-10 10-10h221.08c5.52 0 10 4.48 10 10s-4.48 10-10 10z"/><path fill="#23130D" d="M900.62 924.96h-268.8a9.946 9.946 0 0 1-7.28 3.16H403.46c-2.88 0-5.46-1.22-7.28-3.16h-268.8l-59.84-29.02v20l59.84 29.02h773.24l59.84-29.02v-20l-59.84 29.02z" opacity=".2"/><path fill="#CC7B5A" d="M884.68 129.16v110.08h-98.6V129.02c0-.04.02-.06.02-.1 0-27.18 22.1-49.28 49.28-49.28 27.16 0 49.28 22.1 49.28 49.28 0 .08.02.16.02.24z"/><path fill="#23130D" d="M854.94 83.7c-17.48 7.58-29.72 25-29.72 45.22 0 .04-.02.06-.02.1v110.22h-39.12V129.02c0-.04.02-.06.02-.1 0-27.18 22.1-49.28 49.28-49.28 6.94 0 13.56 1.44 19.56 4.06z" opacity=".2"/><path fill="#E1E1E5" d="M919.52 371.26v500.02H108.46V371.3c0-.02.02-.02.02-.04 0-14.46 5.52-27.68 14.56-37.62.06-.06.12-.12.16-.18.56-.6 1.12-1.2 1.7-1.78 10.14-10.14 24.14-16.42 39.58-16.42h52.82v32h-73.8c-5.52 0-10 4.48-10 10v483.08c0 5.52 4.48 10 10 10h741c5.52 0 10-4.48 10-10V357.26c0-5.52-4.48-10-10-10h-98.42v-32h77.44c30.88 0 56 25.12 56 56z"/><path fill="#3594BF" d="M874.5 367.26v463.08h-721V367.26h63.8v415.5c0 5.54 4.48 10 10 10h230.92l65.28.02h252.58c2.66 0 5.2-1.06 7.08-2.92a9.987 9.987 0 0 0 2.92-7.08V367.26h88.42z"/><path fill="#E59D89" d="M286.58 79.04c-27.18 0-49.28 22.12-49.28 49.28v644.44l528.78.02V128.92c0-.04.02-.08.02-.12.04-19.54 8.2-37.18 21.28-49.76h-500.8zm18.64 317.56h375.9c5.52 0 10 4.48 10 10s-4.48 10-10 10h-375.9c-5.52 0-10-4.48-10-10s4.48-10 10-10zm-10-33.7c0-5.52 4.48-10 10-10h375.9c5.52 0 10 4.48 10 10s-4.48 10-10 10h-375.9c-5.52 0-10-4.48-10-10zm10 77.4h375.9c5.52 0 10 4.48 10 10 0 5.54-4.48 10-10 10h-375.9c-5.52 0-10-4.46-10-10 0-5.52 4.48-10 10-10zm0 43.72h375.9c5.52 0 10 4.48 10 10s-4.48 10-10 10h-375.9c-5.52 0-10-4.48-10-10s4.48-10 10-10zm0 101.44h82.4c5.54 0 10 4.46 10 10 0 5.52-4.46 10-10 10h-82.4c-5.52 0-10-4.48-10-10 0-5.54 4.48-10 10-10zm127.24 117.86H305.22c-5.52 0-10-4.48-10-10s4.48-10 10-10h127.24c5.52 0 10 4.48 10 10s-4.48 10-10 10zm0-48.92H305.22c-5.52 0-10-4.48-10-10 0-5.54 4.48-10 10-10h127.24c5.52 0 10 4.46 10 10 0 5.52-4.48 10-10 10zm263.96 82.14c0 5.52-4.48 10-10 10h-210c-2.78 0-5.26-1.12-7.08-2.92-1.8-1.82-2.92-4.3-2.92-7.08V552.22c0-5.52 4.46-10 10-10h210c5.52 0 10 4.48 10 10v184.32zm0-421.1c0 5.52-4.48 10-10 10h-381.2c-5.52 0-10-4.48-10-10V132.32c0-5.52 4.48-10 10-10h381.2c5.52 0 10 4.48 10 10v183.12z"/><path fill="#23130D" d="M634.54 918.12c0 5.52-4.48 10-10 10H403.46c-5.52 0-10-4.48-10-10s4.48-10 10-10h221.08c5.52 0 10 4.48 10 10zm51.88-375.9h-210c-5.54 0-10 4.48-10 10v184.32c0 2.78 1.12 5.26 2.92 7.08 1.82 1.8 4.3 2.92 7.08 2.92h210c5.52 0 10-4.48 10-10V552.22c0-5.52-4.48-10-10-10zm-200 184.32V655.8l25.08-43.44 65.9 114.18h-90.98zm114.08 0L567 668.52l14.42-24.98 47.92 83H600.5zm75.92 0h-23.98l-62.36-108a9.97 9.97 0 0 0-8.66-5 9.97 9.97 0 0 0-8.66 5l-17.3 29.98-35.3-61.16a10.02 10.02 0 0 0-8.66-5 9.97 9.97 0 0 0-8.66 5l-16.42 28.44v-53.58h190v164.32z"/><path fill="#CC7B5A" d="M629.34 726.54H600.5L567 668.52l14.42-24.98z"/><path fill="#F8D3C9" d="M577.4 726.54h-90.98V655.8l25.08-43.44z"/><path fill="#23130D" d="M629.34 726.54h-11.5l-42.16-73.04 5.74-9.96zm-51.94 0h-11.5l-60.16-104.22 5.76-9.96z" opacity=".2"/><path fill="#3594BF" d="M486.42 562.22v53.58l16.42-28.44c1.78-3.1 5.08-5 8.66-5 3.56 0 6.86 1.9 8.66 5l35.3 61.16 17.3-29.98c1.78-3.1 5.08-5 8.66-5s6.88 1.9 8.66 5l62.36 108h23.98V562.22h-190zm149.86 69.86c-16.72 0-30.32-13.6-30.32-30.32 0-16.74 13.6-30.34 30.32-30.34 16.74 0 30.34 13.6 30.34 30.34 0 16.72-13.6 30.32-30.34 30.32z"/><path fill="#23130D" d="M636.28 571.42c-16.72 0-30.32 13.6-30.32 30.34 0 16.72 13.6 30.32 30.32 30.32 16.74 0 30.34-13.6 30.34-30.32 0-16.74-13.6-30.34-30.34-30.34zm0 40.66a10.332 10.332 0 0 1 0-20.66c5.7 0 10.34 4.64 10.34 10.34 0 5.68-4.64 10.32-10.34 10.32z"/><path fill="#F9C139" d="M646.62 601.76c0 5.68-4.64 10.32-10.34 10.32a10.332 10.332 0 0 1 0-20.66c5.7 0 10.34 4.64 10.34 10.34z"/><path fill="#23130D" d="M691.12 362.9c0 5.52-4.48 10-10 10h-375.9c-5.52 0-10-4.48-10-10s4.48-10 10-10h375.9c5.52 0 10 4.48 10 10zm0 43.7c0 5.52-4.48 10-10 10h-375.9c-5.52 0-10-4.48-10-10s4.48-10 10-10h375.9c5.52 0 10 4.48 10 10zm0 43.7c0 5.54-4.48 10-10 10h-375.9c-5.52 0-10-4.46-10-10 0-5.52 4.48-10 10-10h375.9c5.52 0 10 4.48 10 10zm0 43.72c0 5.52-4.48 10-10 10h-375.9c-5.52 0-10-4.48-10-10s4.48-10 10-10h375.9c5.52 0 10 4.48 10 10zm-293.5 101.44c0 5.52-4.46 10-10 10h-82.4c-5.52 0-10-4.48-10-10 0-5.54 4.48-10 10-10h82.4c5.54 0 10 4.46 10 10zm44.84 48.94c0 5.52-4.48 10-10 10H305.22c-5.52 0-10-4.48-10-10 0-5.54 4.48-10 10-10h127.24c5.52 0 10 4.46 10 10zm0 48.92c0 5.52-4.48 10-10 10H305.22c-5.52 0-10-4.48-10-10s4.48-10 10-10h127.24c5.52 0 10 4.48 10 10zm243.96-571h-381.2c-5.52 0-10 4.48-10 10v183.12c0 5.52 4.48 10 10 10h381.2c5.52 0 10-4.48 10-10V132.32c0-5.52-4.48-10-10-10zm-10 183.12h-361.2V142.32h361.2v163.12z"/><path fill="#F9C139" d="M315.22 142.32v163.12h361.2V142.32h-361.2zm72.24 111.4a10.032 10.032 0 0 1 0 14.16 10.044 10.044 0 0 1-7.08 2.92c-2.54 0-5.1-.98-7.06-2.92l-36.92-36.92a10.032 10.032 0 0 1 0-14.16l36.92-36.9a9.97 9.97 0 0 1 14.14 0 10.006 10.006 0 0 1 0 14.14l-29.84 29.84 29.84 29.84zm262.48-22.76-36.92 36.92a10.044 10.044 0 0 1-7.08 2.92c-2.54 0-5.1-.98-7.06-2.92a10.032 10.032 0 0 1 0-14.16l29.84-29.84-29.84-29.84a10.006 10.006 0 0 1 0-14.14 9.97 9.97 0 0 1 14.14 0l36.92 36.9c1.88 1.88 2.92 4.42 2.92 7.08s-1.04 5.2-2.92 7.08z"/><path fill="#FFF" d="M652.86 223.88c0 2.66-1.04 5.2-2.92 7.08l-36.92 36.92a10.044 10.044 0 0 1-7.08 2.92c-2.54 0-5.1-.98-7.06-2.92a10.032 10.032 0 0 1 0-14.16l29.84-29.84-29.84-29.84a10.006 10.006 0 0 1 0-14.14 9.97 9.97 0 0 1 14.14 0l36.92 36.9a9.987 9.987 0 0 1 2.92 7.08zm-265.4 29.84a10.032 10.032 0 0 1 0 14.16 10.044 10.044 0 0 1-7.08 2.92c-2.54 0-5.1-.98-7.06-2.92l-36.92-36.92a10.032 10.032 0 0 1 0-14.16l36.92-36.9a9.97 9.97 0 0 1 14.14 0 10.006 10.006 0 0 1 0 14.14l-29.84 29.84 29.84 29.84z"/><path fill="#FFF" d="M217.3 646.16v81.48l-63.8-63.8v-81.48zm184.18 184.18H320l-37.58-37.58h81.48zM217.3 551.84v62.64l-63.8-63.8v-62.64zm278.5 278.5h-62.62l-37.58-37.58h62.62zm-278.5-447.9v104.12l-63.8-63.8v-55.5h48.62zm447.9 447.9H561.06l-37.56-37.56h104.14z" opacity=".4"/></svg>
