<svg xmlns="http://www.w3.org/2000/svg" class="svg-icon" style="width:1em;height:1em;vertical-align:middle;fill:currentColor;overflow:hidden" viewBox="0 0 1024 1024"><path fill="#6893DF" d="M290.662 610.355h72.858v81.152h-72.858zm245.402 0h208.845v81.152H536.064zM290.662 321.28h72.858v81.152h-72.858z"/><path fill="#6893DF" d="M789.914 101.734H245.606c-73.062 0-132.505 59.444-132.505 132.506v544.307c0 73.063 59.443 132.506 132.505 132.506h544.308c73.062 0 132.505-59.443 132.505-132.506V234.24c0-73.062-59.443-132.506-132.505-132.506zM424.96 722.227c0 16.947-13.773 30.72-30.72 30.72H259.942c-16.947 0-30.72-13.773-30.72-30.72V579.635c0-16.947 13.773-30.72 30.72-30.72H394.24c16.947 0 30.72 13.773 30.72 30.72v142.592zm0-289.075c0 16.947-13.773 30.72-30.72 30.72H259.942c-16.947 0-30.72-13.773-30.72-30.72V290.56c0-16.947 13.773-30.72 30.72-30.72H394.24c16.947 0 30.72 13.773 30.72 30.72v142.592zm381.389 289.075c0 16.947-13.773 30.72-30.72 30.72H505.344c-16.947 0-30.72-13.773-30.72-30.72V579.635c0-16.947 13.773-30.72 30.72-30.72h270.285c16.947 0 30.72 13.773 30.72 30.72v142.592zm0-289.075c0 16.947-13.773 30.72-30.72 30.72H505.344c-16.947 0-30.72-13.773-30.72-30.72V290.56c0-16.947 13.773-30.72 30.72-30.72h270.285c16.947 0 30.72 13.773 30.72 30.72v142.592z"/><path fill="#6893DF" d="M536.064 321.28h208.845v81.152H536.064z"/></svg>
