<svg xmlns="http://www.w3.org/2000/svg" class="svg-icon" style="width:1em;height:1em;vertical-align:middle;fill:currentColor;overflow:hidden" viewBox="0 0 1024 1024"><path fill="#FFBA00" d="M358.4 614.4v102.4a51.2 51.2 0 0 0 51.2 51.2H768l153.6 102.4V460.8a51.2 51.2 0 0 0-51.2-51.2H409.6a51.2 51.2 0 0 0-51.2 51.2v153.6z"/><path fill="#6B57FE" d="M153.6 204.8h460.8a51.2 51.2 0 0 1 51.2 51.2v307.2a51.2 51.2 0 0 1-51.2 51.2H256L102.4 716.8V256a51.2 51.2 0 0 1 51.2-51.2z"/><path fill="#FFF" d="M230.4 384h307.2a25.6 25.6 0 1 0 0-51.2H230.4a25.6 25.6 0 0 0 0 51.2zm0 102.4h307.2a25.6 25.6 0 1 0 0-51.2H230.4a25.6 25.6 0 0 0 0 51.2z"/></svg>
