<svg xmlns="http://www.w3.org/2000/svg" class="svg-icon" style="width:1em;height:1em;vertical-align:middle;fill:currentColor;overflow:hidden" viewBox="0 0 1024 1024"><path fill="#4A555F" d="M1010.992 474.558h-55.764v-16.32h47.604v-35.476L648.576 147.766h-262.13l-93.214 72.362a8.16 8.16 0 0 1-13.164-6.444V16.32H126.772v329.03c0 2.536-1.18 4.93-3.192 6.474L21.17 430.388v27.85h48.926v16.32H13.008a8.162 8.162 0 0 1-8.16-8.16v-40.034c0-2.536 1.18-4.93 3.192-6.474l102.41-78.564V8.16A8.16 8.16 0 0 1 118.61 0h169.616a8.162 8.162 0 0 1 8.16 8.16v188.86l82.26-63.858a8.16 8.16 0 0 1 5.004-1.714h267.718a8.16 8.16 0 0 1 5.004 1.714l359.62 279.158a8.154 8.154 0 0 1 3.156 6.446v47.632a8.156 8.156 0 0 1-8.156 8.16z"/><path fill="#F58E6F" d="M261.03 231.658v-196.3H145.812v285.834z"/><path fill="#4A555F" d="M926.318 1024H636.784a8.162 8.162 0 0 1-8.16-8.16V682.63H397.14v333.21a8.16 8.16 0 0 1-8.16 8.16h-284.6a8.162 8.162 0 0 1-8.16-8.16V412.348a8.165 8.165 0 0 1 3.16-6.45l295.082-228.594a8.168 8.168 0 0 1 4.998-1.71h231.78c1.812 0 3.564.602 4.998 1.71l295.076 228.594a8.168 8.168 0 0 1 3.16 6.45v603.492a8.154 8.154 0 0 1-8.156 8.16zm-281.376-16.32H918.16V416.348L628.454 191.914H402.25L112.54 416.348v591.332h268.28V674.47a8.16 8.16 0 0 1 8.16-8.16h247.802a8.162 8.162 0 0 1 8.16 8.16v333.21z"/><path fill="#71CCE0" d="M621.914 210.946h-213.13L131.572 425.708v562.91h230.212V647.272h302.18v341.346h235.162v-562.91L621.914 210.946zM515.35 539.944c-58.968 0-106.782-47.816-106.782-106.782 0-58.968 47.816-106.786 106.782-106.786s106.784 47.816 106.784 106.786c-.002 58.966-47.818 106.782-106.784 106.782z"/><path fill="#4A555F" d="M515.35 548.098c-63.376 0-114.932-51.558-114.932-114.932 0-63.372 51.556-114.932 114.932-114.932s114.936 51.558 114.936 114.932c0 63.372-51.56 114.932-114.936 114.932zm0-213.546c-54.376 0-98.612 44.236-98.612 98.612s44.236 98.614 98.612 98.614 98.618-44.238 98.618-98.614-44.242-98.612-98.618-98.612z"/><path fill="#FFD452" d="M515.352 512.738c-43.874 0-79.572-35.698-79.572-79.574s35.698-79.572 79.572-79.572 79.572 35.696 79.572 79.572-35.698 79.574-79.572 79.574z"/><path fill="#4A555F" d="M507.19 326.392h16.32v213.544h-16.32z"/><path fill="#4A555F" d="M408.578 425.004h213.544v16.32H408.578zm-395.57 582.668h91.372v16.32H13.008zm913.31 0h91.376v16.32h-91.376z"/></svg>
