<svg xmlns="http://www.w3.org/2000/svg" class="svg-icon" style="width:1.0146484375em;height:1em;vertical-align:middle;fill:currentColor;overflow:hidden" viewBox="0 0 1039 1024"><path fill="#388CEB" d="M732.806 950.72H269.981c-84.851 0-154.275-71.353-154.275-156.204V320.121c0-86.78 69.424-156.204 154.275-156.204h15.428v77.138H269.98c-42.425 0-77.137 36.64-77.137 79.066v474.395c0 44.354 34.712 79.066 77.137 79.066h462.825c42.426 0 77.138-36.64 77.138-79.066V320.121c0-44.355-34.712-79.066-77.138-79.066H690.38v-77.138h42.426c84.851 0 154.275 71.352 154.275 156.204v474.395c0 84.851-69.424 156.203-154.275 156.203z"/><path fill="#388CEB" d="M626.742 312.407H376.045c-57.853 0-106.064-42.426-106.064-94.494v-48.21c0-52.068 48.211-94.494 106.064-94.494h250.697c57.853 0 106.064 42.426 106.064 94.493v48.211c0 52.068-48.21 94.494-106.064 94.494zM376.045 154.275c-17.356 0-28.926 9.642-28.926 17.356v48.21c0 7.715 11.57 17.357 28.926 17.357h250.697c17.356 0 28.927-9.642 28.927-17.356V171.63c0-7.714-11.571-17.356-28.927-17.356H376.045z"/><path fill="#E78E00" d="M705.808 482.11H289.266c-21.213 0-38.57-17.357-38.57-38.57s17.357-38.568 38.57-38.568h416.542c21.213 0 38.569 17.356 38.569 38.568s-17.356 38.57-38.57 38.57zm0 134.99H289.266c-21.213 0-38.57-17.356-38.57-38.569s17.357-38.569 38.57-38.569h416.542c21.213 0 38.569 17.356 38.569 38.57S727.02 617.1 705.807 617.1zm-185.13 134.99H289.266c-21.213 0-38.57-17.356-38.57-38.568s17.357-38.57 38.57-38.57h231.412c21.213 0 38.569 17.357 38.569 38.57s-17.356 38.568-38.569 38.568z"/></svg>
