<svg xmlns="http://www.w3.org/2000/svg" class="svg-icon" style="width:1em;height:1em;vertical-align:middle;fill:currentColor;overflow:hidden" viewBox="0 0 1024 1024"><path d="M97.453 77.346H959.683V749.54l.013 38.976H854.355l-13.167-26.335c12.19-20.677 10.62-28.702 13.167-52.67h26.335V156.472H143.307v553.036h355.524c7.496 32.276 14.106 31.967 26.334 52.67l-13.167 26.336H64.303l.013-38.976V77.346h33.137zM778.899 777.97c18.028-21.217 28.881-48.71 28.881-78.748 0-67.11-54.174-121.503-121.027-121.503-66.815 0-121.002 54.393-121.002 121.503 0 30.116 10.903 57.647 28.996 78.877l-43.206 113.57 60-3.24 43.515 42.91 31.812-83.584 37.548 98.898 43.553-42.922 60 3.254-49.07-129.015zm-92.34 6.585c-32.572 0-60.385-20.46-71.432-49.263 19.328 13.566 45.752 21.924 74.93 21.924 24.612 0 47.257-5.915 65.361-15.945-12.446 25.602-38.588 43.284-68.859 43.284zm71.933-70.918c-3.845-21.873-15.868-45.032-35.195-64.436-16.331-16.395-35.272-27.531-53.917-32.944 25.152-8.693 54.15-2.971 74.248 17.165 21.603 21.695 26.578 53.738 14.864 80.215zM222.3 459.134v53.056h579.308v-53.056H222.3Zm289.725-105.173v52.657h289.583V353.96H512.025Zm0-131.765v52.657h289.583v-52.657H512.025Zm-289.532.308h223.861v184.333H222.493V222.504Z"/></svg>
