<svg xmlns="http://www.w3.org/2000/svg" class="svg-icon" style="width:1em;height:1em;vertical-align:middle;fill:currentColor;overflow:hidden" viewBox="0 0 1024 1024"><path fill="#D3D1D7" d="M806.6 825.8c-1.7 0-3.5-.2-5.1-.5l-355.1-75.5c-13.5-2.9-22.1-16.2-19.3-29.7L530.4 234c2.4-11.5 12.7-19.8 24.5-19.8 1.7 0 3.4.2 5.1.5l355.1 75.5c6.5 1.4 12.1 5.2 15.7 10.9 3.7 5.6 4.9 12.3 3.5 18.8L831.1 806c-2.4 11.5-12.7 19.8-24.5 19.8z"/><path fill="#3A3644" d="m555 239.3 354.9 75.4.1.1-103.3 486s-.1 0-.1.1l-354.9-75.4-.1-.1 103.3-486 .1-.1m0-50.1c-23.1 0-44 16.2-49 39.6L402.7 715c-5.7 26.9 11.6 53.6 38.5 59.3l355.1 75.5c3.5.7 6.9 1.1 10.3 1.1 23.1 0 44-16.2 49-39.6l103.3-486.1c5.7-26.9-11.6-53.6-38.5-59.3l-355.1-75.5c-3.4-.8-6.9-1.2-10.3-1.2z"/><path fill="#3A3644" d="m569.4 326.4 290.5 61.7c2.7.6 4.4 3.2 3.9 5.9l-4.8 22.4c-.6 2.7-3.2 4.4-5.9 3.9l-290.5-61.7c-2.7-.6-4.4-3.2-3.9-5.9l4.8-22.4c.5-2.7 3.2-4.4 5.9-3.9zm264.9 189.7 11.5-53.9c.6-2.7-1.2-5.4-3.9-5.9l-290.5-61.7c-2.7-.6-5.4 1.2-5.9 3.9L534 452.3c-.6 2.7 1.2 5.4 3.9 5.9l290.5 61.7c2.7.6 5.4-1.1 5.9-3.8z"/><path fill="#D5DEE0" d="M217.4 734c-11.8 0-22.1-8.3-24.5-19.8L89.5 228.1c-2.9-13.5 5.8-26.8 19.3-29.7L463.9 123c1.7-.4 3.4-.5 5.1-.5 11.8 0 22.1 8.3 24.5 19.8l103.3 486.1c2.9 13.5-5.8 26.8-19.3 29.7l-355.1 75.5c-1.6.3-3.3.4-5 .4z"/><path fill="#3A3644" d="M469 147.5s.1 0 .1.1l103.3 486s0 .1-.1.1L217.4 709s-.1 0-.1-.1L114 223s0-.1.1-.1L469 147.5m0-50.1c-3.4 0-6.9.4-10.3 1.1L103.6 174c-26.9 5.7-44.2 32.4-38.5 59.3l103.3 486.1c5 23.4 25.9 39.6 49 39.6 3.4 0 6.9-.4 10.3-1.1l355.1-75.5c26.9-5.7 44.2-32.4 38.5-59.3L518 137c-5-23.4-25.9-39.6-49-39.6z"/><path fill="#3A3644" d="m465 317.5-290.5 61.7c-2.7.6-5.4-1.2-5.9-3.9l-8.3-39.1c-.6-2.7 1.2-5.4 3.9-5.9l290.5-61.7c2.7-.6 5.4 1.2 5.9 3.9l8.3 39.1c.5 2.7-1.2 5.4-3.9 5.9zm25 93.3-8.3-39.1c-.6-2.7-3.2-4.4-5.9-3.9l-290.5 61.7c-2.7.6-4.4 3.2-3.9 5.9l8.3 39.1c.6 2.7 3.2 4.4 5.9 3.9l290.5-61.7c2.7-.6 4.4-3.2 3.9-5.9z"/><path fill="#FFF" d="M272 759.3c-13.8 0-25-11.2-25-25v-620c0-13.8 11.2-25 25-25h480c13.8 0 25 11.2 25 25v620c0 13.8-11.2 25-25 25H272z"/><path fill="#3A3644" d="M751.9 114.3s.1 0 0 0l.1 619.9-.1.1H272.1l-.1-.1V114.4l.1-.1h479.8m.1-50H272c-27.5 0-50 22.5-50 50v620c0 27.5 22.5 50 50 50h480c27.5 0 50-22.5 50-50v-620c0-27.5-22.5-50-50-50z"/><path fill="#3A3644" d="M243 194.5h538v34.8H243z"/><path fill="#92D976" d="M594 154.8a25 25 0 1 0 50 0 25 25 0 1 0-50 0Z"/><path fill="#F44D5A" d="M665 154.8a25 25 0 1 0 50 0 25 25 0 1 0-50 0Z"/><path fill="#D8D7DA" d="M713.5 352.8h-403v-90h403v90zm-283 30h-120v307h120v-307zm283 0h-252v307h252v-307z"/><path fill="#B8B7BC" d="M272.1 702.3c0-.1-.1-.1 0 0l-.1-178h68.5c21 63.8 81.2 110 152 110s131-46.2 152-110H752v177.9l-.1.1H272.1z"/><path fill="#A5DAE4" d="M144 934.8c-30.3 0-55-24.7-55-55v-220c0-30.3 24.7-55 55-55h245.3c11.8 62.5 66.8 110 132.7 110s120.9-47.5 132.7-110H880c30.3 0 55 24.7 55 55v220c0 30.3-24.7 55-55 55H144z"/><path fill="#3A3644" d="M880 629.8c7.9 0 15.4 3.1 21.1 8.9 5.7 5.7 8.9 13.2 8.9 21.1v220c0 7.9-3.1 15.4-8.9 21.1-5.7 5.7-13.2 8.9-21.1 8.9H144c-7.9 0-15.4-3.1-21.1-8.9-5.7-5.7-8.9-13.2-8.9-21.1v-220c0-7.9 3.1-15.4 8.9-21.1 5.7-5.7 13.2-8.9 21.1-8.9h226c21 63.8 81.2 110 152 110s131-46.2 152-110h206m0-50H632c0 60.8-49.2 110-110 110s-110-49.2-110-110H144c-44 0-80 36-80 80v220c0 44 36 80 80 80h736c44 0 80-36 80-80v-220c0-44-36-80-80-80z"/><path fill="#77C0D1" d="M144 910.3c-4.9 0-9.7-1.3-13.8-3.5H745c71.7 0 130-58.3 130-130V630.3h5c16.3 0 30 13.7 30 30v220c0 16.3-13.7 30-30 30H144z"/><path fill="#53757A" d="M171.5 696.8h100v50h-100z"/></svg>
