<svg xmlns="http://www.w3.org/2000/svg" class="svg-icon" style="width:1em;height:1em;vertical-align:middle;fill:currentColor;overflow:hidden" viewBox="0 0 1024 1024"><path fill="#4A555F" d="m468.8 566.8-3.2 4-2.4 2.8-4.4 5.2L372 683.6H106.8V1024H478V566.8h-9.2zm-3.2 444.8H119.2V696h258.4l88-105.6v421.2z"/><path fill="#F68F6F" d="M451.2 598v399.2H133.6V689.6h241.2z"/><path fill="#4A555F" d="M570.8 683.6 484 579.2l-4.4-5.6-1.2-1.6-4.4-5.2h-8V1024h371.2V683.6H570.8zm253.6 328H478v-420L564.8 696h259.6v315.6z"/><path fill="#FFD552" d="M810 689.6v307.6H492.4v-398l75.6 90.4z"/><path fill="#4A555F" d="m484.8 566.8-5.6 7.2-1.2 1.2-.8 1.2-5.6 6.8-5.6-6-.4-.4-2.4-2.8-6.4-7.2z"/><path fill="#4A555F" d="m484.8 566.8-5.6 7.2-1.2 1.2-.8 1.2-5.6 6.8-5.6-6-.4-.4-2.4-2.8-6.4-7.2z"/><path fill="#E0E0E0" d="m577.6 669.2-62.8-75.6h306l62 75.6z"/><path fill="#4A555F" d="M478 566.8v24.8l-6.8-8-5.2-6.4-.4-.4-2.4-2.8-5.6-7.2zm-168.4 12.4h-94.8L171.6 464c-5.6-15.2-18.8-26-34.8-28.8-27.2-4.4-50-22-61.6-47.2-14-30.4-8.4-66.4 14.4-90.8l6.4-6.8 32 68.8c2 4.8 7.2 7.6 12 6.8l21.2-2.4c4-.4 7.2-2.8 8.8-6 2-3.2 2-7.2.4-10.8L136 271.6l8.8-.4c34-2.4 66.4 17.2 80.8 48 11.2 24 10 52.4-3.2 75.6-7.6 13.6-7.6 30 0 43.6l87.2 140.8zm-86.4-12.4h64l-75.6-122.4c-10-17.6-9.6-38.8 0-56 11.2-19.6 12.4-43.6 2.8-64-10.8-23.6-33.6-39.2-59.2-40.8L182 342c3.2 7.2 2.8 15.2-.8 22-4 6.8-10.4 11.2-18.4 12.4l-21.2 2.4c-10.4 1.2-20.4-4.4-24.8-14l-24-51.6c-14 20-16.8 46.8-6 69.6 9.6 21.2 29.2 36 52.4 40 20.4 3.6 37.2 17.6 44 36.4l40 107.6z"/><path fill="#E0E0E0" d="M274.4 573.2h-33.2l-44.4-118.8c-8.8-24-30-41.2-55.2-45.6-18.4-3.2-34-15.2-41.6-32-4-8.4-5.6-17.2-5.2-26l9.2 19.6c6.4 13.6 20 22.4 35.2 22.4 1.6 0 2.8 0 4.4-.4l21.6-2.4c12.4-1.6 23.2-8.8 29.2-19.6s6.4-24 1.2-35.2l-13.2-28.4c8 5.6 14.8 13.2 19.2 22.8 7.6 16.4 6.8 35.2-2.4 50.8-12.4 21.6-12.4 48.4 0 70l.4.8 74.8 122z"/><path fill="#4A555F" d="m878.4 395.2-116-42.8L804 239.6l116 42.8-41.6 112.8zm-99.6-50 92.8 34.4 33.2-89.6-92.8-34.4-33.2 89.6z"/><path fill="#F68F6F" d="m885.952 298.552-23.164 62.652-65.656-24.276 23.168-62.652z"/><path fill="#4A555F" d="m742.4 331.6-57.2-21.2 32.8-89.2 57.2 21.2-32.8 89.2zm-41.2-28.4 34 12.4 24.4-66-34-12.4-24.4 66z"/><path fill="#F68F6F" d="m741.04 258.052-14.296 38.64-6.752-2.496 14.292-38.64z"/><path fill="#4A555F" d="m783.6 332-48-17.6 23.2-63.2 48 17.6-23.2 63.2zm-32-25.2 24.8 9.2 14.8-40-24.8-9.2-14.8 40zm269.6 106.4L982 398.8l-1.2-2.4c-14.8-30-40-53.2-71.6-64.8l-18-6.8 17.2-46.8 18 6.8c46.4 17.2 80 56.4 89.6 104.8l5.2 23.6zm-30.4-24.4 14 5.2-.4-2c-8.8-44.4-39.6-80-82-95.6L916 294l-8.8 23.6 6.4 2.4c33.6 12.8 61.2 37.2 77.2 68.8zM778.4 579.2h-68.8L794 350.8l60.8 22.4-76.4 206zm-51.2-12.4H770l68.8-186.4-37.6-14-74 200.4z"/><path fill="#F68F6F" d="m801.2 439.6 18.8-50.4-10.4-4-20 54.4z"/><path fill="#4A555F" d="M491.6 504.8H454l-26.8-68-67.6 29.6-3.6-4-27.2-27.2L358 368l-68-26.8v-37.6l68-26.8-29.2-66.8 4.4-4.4 22-22 67.2 29.2 26.8-68h37.6l26.8 68 67.2-29.2 31.2 31.2-29.2 67.2 68 26.8v37.6l-68 26.8 29.2 67.2-4.8 4.4-22 22-67.2-29.2-26.4 67.2zm-29.2-12.4h20.8l28.4-72.4 71.2 31.2 14.8-14.8-31.2-71.2 72.4-28.4V316l-72.4-28.4 31.2-71.2-19.2-19.2-71.2 30.8-28.4-72H458l-28.4 72-71.2-30.8-14.8 14.8 30.8 71.2-72 28.4v20.8l72 28.4-30.8 71.2 19.2 19.2 71.2-30.8 28.4 72zm8-104.4c-22 0-42.8-11.6-54-30.8-5.6-9.6-8.8-20.4-8.8-31.6 0-34.4 28-62.8 62.8-62.8 10.8 0 21.6 2.8 30.8 8.4 19.6 11.2 31.6 32 31.6 54.4.4 34.4-28 62.4-62.4 62.4zm0-112.8c-27.6 0-50.4 22.4-50.4 50.4 0 9.2 2.4 18 7.2 25.6 9.2 15.6 25.2 24.8 43.2 24.8 27.6 0 50.4-22.4 50.4-50 0-18-9.6-34.8-25.6-43.6-7.6-5.2-16-7.2-24.8-7.2z"/><path fill="#FFD552" d="M472.4 478 442 401.2l-75.6 33.2-5.2-5.2 32.8-76-76.8-30.4v-1.2l76.8-30-32.8-75.6.8-.8 76 32.8 30-76.8h1.2l30.4 76.8 75.6-32.8 5.2 5.2-33.2 75.6 77.2 30.4v1.2l-77.2 30 33.2 75.6-.8.8-75.6-33.2-30 77.2h-1.6zm-2-229.6c-42.4 0-77.2 34.4-77.2 77.2 0 14 3.6 27.6 10.8 39.2 13.6 23.2 39.2 37.6 66.4 37.6 42.4 0 77.2-34.4 77.2-76.8 0-27.6-14.8-53.2-38.8-66.8-11.6-6.8-25.2-10.4-38.4-10.4z"/><path fill="#4A555F" d="M476.8 86.4h-12.4V74h12.4v12.4zm0-24.4h-12.4V49.6h12.4V62zm0-24.8h-12.4V24.8h12.4v12.4zm0-24.8h-12.4V0h12.4v12.4zM725.512 98.096l9.804 7.592-36.98 47.756-9.804-7.596zM236.54 98.304l36.976 47.76-9.804 7.592-36.976-47.76zM110.4 566.8 2.8 696h374.8l88-105.6 5.6-6.8v-.4l6-6.8.8-.8 1.2-1.6 5.6-6.8H110.4zM372 683.6H29.2L116 579.2h342.8L372 683.6z"/><path fill="#4A555F" d="M833.6 566.8h-376l5.6 6.8 2.4 2.8.4.4 5.2 6 6.8 8 86.8 104.4h374.8l-106-128.4zM570.8 683.6 484 579.2h343.6l85.6 104.4H570.8z"/></svg>
